<?xml version="1.0" standalone="no"?>
<!DOCTYPE svg PUBLIC "-//W3C//DTD SVG 20010904//EN"
 "http://www.w3.org/TR/2001/REC-SVG-20010904/DTD/svg10.dtd">
<svg version="1.0" xmlns="http://www.w3.org/2000/svg"
 width="2501.000000pt" height="2501.000000pt" viewBox="0 0 2501.000000 2501.000000"
 preserveAspectRatio="xMidYMid meet">
<metadata>
Created by potrace 1.14, written by Peter Selinger 2001-2017
</metadata>
<g transform="translate(0.000000,2501.000000) scale(0.100000,-0.100000)"
fill="#000000" stroke="none">
<path d="M11849 25006 c-2 -2 -60 -7 -129 -11 -69 -3 -143 -8 -165 -10 -100
-9 -175 -16 -235 -20 -36 -3 -78 -7 -95 -9 -16 -3 -57 -7 -90 -11 -33 -3 -74
-8 -91 -10 -17 -3 -57 -7 -89 -11 -32 -3 -66 -7 -75 -9 -8 -2 -43 -6 -75 -10
-33 -4 -67 -9 -75 -10 -36 -6 -97 -16 -127 -20 -18 -3 -48 -7 -65 -10 -18 -3
-49 -7 -68 -10 -30 -4 -110 -18 -220 -40 -13 -2 -40 -7 -60 -10 -42 -6 -40 -6
-200 -40 -69 -14 -136 -29 -150 -31 -14 -3 -92 -21 -175 -40 -82 -19 -157 -37
-165 -39 -8 -2 -51 -13 -95 -24 -44 -12 -91 -24 -105 -27 -14 -2 -40 -9 -58
-15 -18 -6 -39 -12 -45 -13 -7 -2 -32 -8 -57 -15 -25 -8 -52 -15 -60 -16 -8
-2 -15 -4 -15 -5 0 -1 -7 -3 -15 -5 -8 -1 -42 -11 -75 -21 -33 -10 -62 -19
-65 -19 -3 -1 -12 -4 -20 -8 -13 -5 -81 -25 -115 -33 -39 -9 -544 -183 -615
-211 -14 -6 -50 -19 -80 -31 -103 -38 -245 -93 -277 -108 -17 -8 -34 -14 -37
-14 -3 0 -29 -11 -58 -24 -54 -23 -82 -34 -96 -37 -4 0 -18 -7 -32 -14 -28
-15 -159 -75 -165 -75 -11 0 -525 -245 -565 -270 -8 -5 -37 -19 -65 -32 -27
-13 -52 -25 -55 -28 -3 -3 -34 -20 -70 -38 -36 -17 -92 -47 -125 -65 -33 -19
-87 -48 -120 -67 -143 -78 -340 -194 -346 -203 -3 -5 -10 -9 -15 -9 -5 -1 -25
-11 -44 -23 -19 -12 -84 -52 -145 -90 -135 -84 -335 -215 -475 -312 -58 -40
-113 -79 -124 -86 -10 -6 -38 -27 -62 -44 -23 -18 -47 -33 -52 -33 -6 0 -12
-7 -16 -15 -3 -8 -12 -15 -21 -15 -8 0 -15 -4 -15 -9 0 -5 -17 -20 -37 -32
-21 -13 -45 -30 -54 -39 -10 -8 -24 -19 -31 -25 -60 -46 -135 -101 -143 -107
-5 -4 -29 -23 -51 -42 -23 -20 -46 -36 -50 -36 -5 0 -17 -8 -26 -17 -27 -30
-76 -73 -83 -73 -3 0 -12 -6 -19 -12 -7 -7 -33 -29 -57 -50 -56 -46 -84 -69
-189 -158 -29 -25 -58 -50 -64 -56 -6 -5 -49 -43 -96 -84 -47 -41 -99 -88
-117 -105 -17 -16 -66 -61 -109 -100 -105 -95 -518 -508 -629 -629 -49 -54
-105 -114 -123 -134 -18 -19 -52 -57 -75 -85 -23 -27 -55 -63 -72 -81 -16 -18
-48 -54 -70 -80 -22 -27 -49 -58 -60 -71 -11 -12 -36 -41 -54 -65 -19 -23 -40
-48 -45 -54 -6 -6 -29 -34 -51 -61 -22 -28 -44 -55 -50 -61 -5 -6 -17 -22 -25
-34 -8 -12 -25 -34 -38 -48 -13 -15 -37 -46 -54 -69 -17 -24 -36 -43 -41 -43
-6 0 -8 -3 -4 -6 3 -4 1 -12 -6 -19 -18 -20 -105 -133 -162 -212 -11 -16 -54
-75 -95 -133 -42 -58 -123 -175 -180 -260 -58 -85 -108 -157 -113 -158 -4 -2
-5 -8 -1 -13 3 -5 1 -9 -3 -9 -5 0 -19 -20 -33 -45 -14 -25 -28 -45 -32 -45
-5 0 -8 -5 -8 -10 0 -9 -47 -87 -60 -100 -9 -9 -29 -44 -43 -75 -8 -16 -21
-36 -30 -44 -10 -7 -17 -17 -17 -22 0 -5 -11 -28 -26 -50 -25 -41 -47 -78 -93
-159 -13 -25 -27 -47 -30 -50 -3 -3 -17 -25 -30 -50 -12 -25 -32 -63 -44 -85
-11 -22 -24 -42 -27 -45 -3 -3 -20 -32 -37 -65 -17 -33 -47 -91 -68 -130 -21
-38 -74 -142 -117 -230 -76 -153 -86 -172 -107 -212 -53 -98 -323 -716 -324
-740 0 -7 -4 -13 -9 -13 -4 0 -7 -3 -6 -7 1 -5 -15 -53 -37 -108 -22 -55 -40
-102 -40 -105 -1 -7 -55 -149 -71 -187 -8 -17 -14 -37 -14 -45 0 -8 -3 -18 -7
-22 -4 -3 -8 -12 -9 -19 -2 -7 -28 -84 -58 -172 -31 -88 -56 -161 -56 -162 -1
-3 -4 -16 -21 -68 -7 -22 -14 -42 -14 -45 0 -3 -11 -39 -24 -80 -13 -41 -25
-82 -26 -90 -2 -8 -4 -15 -5 -15 -1 0 -3 -7 -5 -15 -2 -8 -15 -55 -30 -105
-26 -91 -44 -158 -50 -185 -2 -8 -10 -40 -19 -71 -9 -31 -19 -67 -22 -80 -3
-13 -6 -28 -8 -34 -12 -43 -66 -269 -72 -305 -3 -14 -12 -54 -20 -90 -9 -36
-17 -77 -19 -93 -2 -15 -6 -31 -9 -35 -2 -4 -7 -28 -11 -52 -3 -25 -8 -53 -11
-63 -3 -10 -7 -30 -9 -45 -3 -15 -7 -38 -10 -52 -3 -14 -8 -41 -11 -60 -2 -19
-6 -42 -9 -50 -2 -8 -7 -37 -11 -65 -3 -27 -8 -53 -10 -56 -1 -3 -6 -28 -10
-55 -3 -27 -8 -58 -10 -69 -2 -10 -6 -37 -9 -60 -4 -22 -13 -83 -20 -135 -24
-160 -39 -284 -50 -395 -2 -27 -7 -68 -10 -90 -3 -22 -7 -67 -10 -100 -4 -56
-7 -93 -20 -235 -3 -30 -8 -104 -12 -165 -11 -146 -10 -1431 0 -1565 5 -58 10
-125 12 -150 1 -25 6 -76 10 -115 3 -38 8 -95 11 -125 2 -30 6 -75 9 -100 5
-44 10 -88 20 -180 3 -25 7 -58 10 -75 2 -16 7 -52 10 -80 5 -43 18 -133 30
-215 2 -14 6 -41 9 -60 6 -43 16 -107 22 -140 18 -108 57 -329 60 -345 3 -11
9 -40 14 -65 5 -25 16 -76 24 -115 9 -38 18 -81 20 -95 12 -60 48 -220 62
-275 157 -612 287 -1036 440 -1440 4 -11 8 -22 8 -25 3 -12 89 -228 103 -259
8 -18 16 -39 17 -45 2 -6 9 -24 16 -41 38 -89 63 -148 64 -155 1 -3 9 -22 19
-42 9 -21 24 -55 33 -75 9 -21 29 -66 45 -101 16 -35 29 -65 29 -66 0 -5 122
-262 193 -406 28 -58 60 -117 70 -133 10 -15 16 -27 13 -27 -4 0 5 -18 18 -39
14 -21 23 -41 20 -43 -2 -3 2 -11 11 -18 8 -7 15 -16 15 -20 0 -4 32 -65 70
-134 39 -70 70 -131 70 -136 0 -4 3 -10 8 -12 8 -3 33 -46 59 -100 10 -21 21
-38 25 -38 5 0 8 -4 8 -9 0 -12 103 -185 112 -189 5 -2 8 -8 8 -13 0 -6 30
-58 68 -117 37 -59 73 -120 81 -135 8 -15 18 -27 23 -27 4 0 8 -7 8 -15 0 -8
5 -15 10 -15 6 0 10 -5 10 -12 0 -6 11 -26 25 -44 14 -18 25 -35 25 -38 0 -3
7 -14 16 -23 8 -10 39 -54 67 -98 28 -44 55 -81 59 -83 5 -2 8 -9 8 -15 0 -7
10 -23 23 -37 12 -14 33 -42 46 -63 13 -21 28 -43 34 -50 7 -6 32 -41 57 -77
24 -36 50 -72 57 -80 12 -14 134 -176 178 -236 11 -15 25 -32 30 -38 6 -6 26
-31 45 -56 19 -25 37 -47 40 -50 3 -3 18 -23 35 -45 16 -21 36 -47 45 -56 8
-9 22 -25 30 -35 24 -31 104 -128 115 -140 15 -16 118 -134 138 -158 17 -21
98 -113 150 -170 251 -277 786 -809 828 -824 5 -2 9 -10 9 -18 0 -8 4 -14 8
-14 10 0 22 -10 126 -103 83 -74 121 -108 140 -124 28 -23 201 -168 220 -183
10 -8 23 -19 30 -25 6 -5 34 -28 61 -50 28 -22 56 -45 63 -52 7 -7 16 -13 20
-13 4 0 21 -13 37 -28 28 -26 162 -130 209 -162 12 -8 68 -50 124 -92 56 -43
105 -78 107 -78 5 0 37 -26 60 -48 8 -6 16 -12 19 -12 6 0 169 -110 192 -128
5 -5 30 -22 55 -38 24 -16 46 -32 47 -36 2 -5 9 -8 16 -8 7 0 26 -11 42 -25
16 -14 35 -25 42 -25 6 0 12 -4 12 -10 0 -5 7 -10 15 -10 8 0 15 -4 15 -10 0
-5 6 -10 13 -10 7 0 23 -9 34 -19 12 -11 23 -17 27 -14 3 3 8 -2 12 -11 3 -9
11 -16 17 -16 5 0 34 -16 63 -35 29 -19 57 -35 63 -35 6 0 11 -4 11 -9 0 -5 8
-11 18 -15 9 -3 40 -20 67 -37 28 -17 64 -39 80 -48 17 -9 49 -29 72 -44 24
-15 44 -27 47 -27 2 0 52 -28 112 -62 60 -35 123 -70 139 -78 17 -8 32 -17 35
-20 3 -3 64 -34 135 -70 72 -36 132 -68 135 -71 8 -9 177 -89 188 -89 6 0 12
-3 14 -8 1 -4 50 -29 108 -56 58 -27 131 -62 164 -77 32 -16 63 -29 68 -29 5
0 24 -10 41 -22 18 -13 32 -22 32 -20 0 5 34 -7 84 -30 73 -33 404 -170 431
-178 14 -5 79 -29 145 -55 66 -25 128 -48 137 -50 9 -2 25 -8 35 -13 82 -42
867 -285 1084 -337 9 -2 54 -13 100 -25 146 -37 153 -39 404 -94 78 -18 307
-65 340 -71 22 -4 49 -9 60 -11 11 -2 31 -5 45 -7 14 -2 39 -7 55 -10 17 -4
48 -10 70 -13 69 -10 83 -12 112 -18 15 -3 51 -8 78 -12 28 -3 57 -8 67 -9 9
-2 38 -6 65 -10 26 -4 59 -8 73 -10 14 -2 48 -7 75 -10 28 -3 65 -8 83 -11 18
-2 54 -6 80 -9 127 -14 149 -17 172 -20 14 -2 61 -7 105 -10 44 -3 96 -8 115
-10 19 -2 77 -7 129 -10 52 -3 113 -8 135 -10 266 -26 1318 -26 1586 0 19 2
82 6 140 10 58 4 121 8 140 10 88 8 178 16 210 20 19 2 60 7 90 10 77 9 107
13 165 20 28 4 66 9 85 10 19 2 35 4 35 5 0 1 11 3 25 5 14 1 50 5 80 9 30 3
69 9 85 12 17 4 41 8 55 9 24 2 95 13 135 21 11 3 36 7 55 10 19 2 58 9 85 15
28 5 64 11 80 13 17 2 41 7 55 10 14 3 37 8 53 10 15 3 35 7 45 10 9 3 34 7
56 11 21 3 42 7 46 10 4 2 25 7 46 9 22 3 66 12 99 20 33 9 71 17 85 20 14 2
43 9 65 15 22 6 49 12 60 14 22 4 38 8 180 44 55 14 105 26 110 27 39 10 91
24 245 68 96 28 182 51 190 53 8 2 16 4 18 5 1 2 5 3 10 4 71 15 691 226 769
262 17 8 34 14 38 14 9 0 175 64 222 86 17 7 33 14 36 14 2 0 22 8 43 17 22 9
41 17 44 18 5 2 42 17 90 38 14 6 27 11 30 12 7 2 57 24 128 56 35 16 65 29
67 29 5 0 112 50 265 123 58 28 107 51 110 51 13 3 472 238 480 246 3 3 25 15
50 28 96 50 336 187 348 199 7 7 20 13 28 13 8 0 14 5 14 10 0 6 6 10 14 10 8
0 22 7 30 16 9 8 16 13 16 9 0 -3 15 5 33 19 19 15 37 26 41 26 4 0 34 18 67
40 33 22 65 40 70 40 5 0 9 5 9 10 0 6 7 10 15 10 8 0 15 3 15 8 0 4 13 13 29
20 16 7 42 24 57 37 16 14 32 25 36 25 10 0 102 63 106 72 2 4 8 8 12 8 8 0
190 118 200 131 3 3 28 20 55 39 80 53 190 134 193 142 2 5 10 8 18 8 8 0 17
7 20 15 4 8 12 15 20 15 8 0 14 5 14 10 0 6 5 10 11 10 5 0 24 13 42 30 18 16
38 30 45 30 6 0 12 3 12 8 0 4 45 41 100 82 55 41 100 78 100 82 0 4 4 8 10 8
5 0 20 9 32 19 57 49 67 58 98 81 18 14 42 33 54 43 11 10 41 34 66 55 24 20
57 49 72 64 15 14 28 24 28 21 0 -3 10 5 23 18 12 13 43 41 67 61 46 37 72 60
193 171 169 153 244 225 436 417 178 178 374 382 439 458 11 12 48 54 82 92
34 38 71 80 82 92 10 13 29 34 41 48 12 14 57 68 101 120 43 52 83 96 87 98 5
2 9 8 9 13 0 6 9 20 21 32 12 12 33 38 47 57 15 19 29 37 32 40 3 3 23 28 45
55 22 28 43 51 47 53 5 2 8 8 8 14 0 6 12 25 28 43 55 66 87 107 91 118 2 6
15 21 27 34 13 13 24 28 24 32 0 5 13 24 30 42 16 19 30 37 30 41 0 4 6 13 13
20 13 14 111 151 162 228 16 25 33 47 36 50 3 3 41 59 84 125 43 66 81 122 84
125 9 7 30 42 40 66 5 11 15 27 23 35 7 8 19 26 27 39 8 14 61 101 118 194 57
92 103 169 103 171 0 1 29 53 65 115 36 62 65 116 65 120 0 5 3 10 8 12 4 2
15 19 24 38 10 19 38 73 63 120 76 139 155 297 155 309 0 6 4 11 8 11 4 0 21
28 36 62 16 35 53 113 81 173 76 160 109 231 145 315 18 41 39 91 47 110 42
97 52 119 72 170 12 30 26 64 31 75 33 74 230 603 230 618 0 3 5 18 12 34 6
15 12 33 14 38 1 6 21 66 44 135 23 69 43 132 45 140 2 8 22 76 45 150 22 74
42 144 44 155 2 11 9 31 14 45 5 14 10 28 11 33 0 4 1 8 2 10 0 1 2 9 4 17 1
8 8 35 15 60 7 25 14 52 16 60 2 8 8 33 14 55 14 50 31 115 35 135 3 14 52
225 76 322 6 26 12 58 15 70 2 13 15 79 29 148 35 171 37 182 40 207 2 12 6
34 9 50 10 44 13 63 26 148 7 44 14 89 16 100 2 11 7 40 9 65 3 25 8 52 10 60
2 8 7 38 10 65 4 28 8 61 10 75 12 78 26 197 40 320 2 25 7 68 10 95 6 55 12
117 20 215 3 36 7 88 10 115 17 206 20 348 20 945 0 371 -4 722 -8 780 -14
180 -17 218 -22 283 -3 34 -8 89 -10 122 -3 33 -7 74 -10 90 -2 17 -7 62 -11
100 -4 39 -8 77 -9 85 -1 8 -5 42 -9 75 -8 69 -35 257 -41 296 -3 14 -7 41 -9
60 -11 80 -38 246 -51 309 -5 23 -18 96 -31 165 -21 118 -96 464 -121 560 -14
56 -17 68 -27 113 -8 37 -68 260 -83 312 -9 30 -18 62 -19 70 -4 23 -10 43
-22 73 -7 16 -12 32 -12 36 0 5 -14 53 -31 107 -17 55 -32 106 -34 114 -17 81
-270 786 -322 899 -8 18 -16 39 -17 45 -1 6 -12 33 -24 60 -12 27 -22 50 -22
51 0 1 -6 18 -14 36 -8 19 -15 39 -16 44 -1 6 -10 24 -20 40 -10 17 -19 32
-19 35 0 8 -17 50 -49 120 -16 36 -39 88 -52 115 -109 243 -301 624 -425 845
-37 67 -88 157 -119 215 -6 11 -14 22 -17 25 -9 9 -129 222 -129 230 0 5 -4
10 -8 12 -9 3 -132 196 -132 207 0 3 -10 18 -23 33 -13 14 -32 43 -42 62 -11
20 -23 36 -27 36 -5 0 -8 6 -8 14 0 8 -6 21 -13 28 -11 11 -132 188 -162 237
-5 9 -13 18 -16 21 -3 3 -21 28 -40 55 -65 95 -194 270 -201 273 -5 2 -8 10
-8 17 0 7 -4 15 -9 17 -5 2 -39 44 -77 93 -37 50 -72 95 -76 100 -17 22 -81
101 -96 120 -10 11 -55 68 -102 125 -47 58 -92 112 -100 121 -8 9 -33 37 -55
64 -22 26 -51 60 -65 75 -14 16 -50 56 -80 91 -92 105 -141 158 -240 263 -121
128 -454 460 -551 549 -41 38 -96 90 -124 115 -55 52 -194 175 -239 213 -16
13 -43 38 -61 54 -18 17 -48 42 -67 57 -38 31 -235 191 -257 211 -17 14 -119
93 -252 194 -91 70 -288 215 -326 240 -10 7 -59 42 -110 78 -50 36 -94 65 -98
65 -3 0 -15 8 -26 18 -10 11 -32 25 -47 33 -15 8 -31 18 -37 22 -5 4 -44 30
-85 58 -94 62 -93 61 -166 106 -33 21 -69 43 -80 50 -10 7 -44 27 -74 45 -30
17 -56 35 -58 40 -2 4 -7 8 -12 8 -4 0 -52 26 -107 58 -54 32 -123 72 -153 89
-30 16 -91 50 -135 75 -158 89 -499 266 -585 303 -25 10 -58 28 -75 39 -16 12
-30 19 -30 18 0 -2 -13 2 -30 9 -16 7 -33 12 -37 11 -5 -1 -8 3 -8 8 0 6 -4
10 -10 10 -9 0 -38 13 -207 90 -45 21 -84 36 -86 34 -2 -3 -10 2 -17 11 -7 8
-18 15 -25 15 -11 0 -229 88 -312 126 -17 8 -33 14 -36 14 -3 0 -18 5 -34 12
-15 6 -32 12 -38 14 -5 2 -80 30 -165 62 -137 52 -508 181 -535 186 -5 1 -46
14 -90 28 -44 14 -114 35 -155 47 -41 12 -86 26 -100 31 -14 4 -43 13 -65 19
-22 6 -72 20 -110 30 -39 11 -81 22 -95 25 -14 2 -25 5 -25 6 0 2 -14 5 -53
14 -13 3 -32 8 -42 11 -10 3 -27 8 -37 10 -10 2 -76 18 -148 35 -127 30 -200
47 -240 55 -11 2 -54 11 -95 20 -41 9 -86 19 -100 21 -14 3 -56 11 -95 19 -81
16 -144 27 -165 30 -8 1 -73 12 -145 24 -222 37 -221 37 -300 47 -33 5 -62 9
-65 9 -3 1 -32 5 -65 9 -33 4 -75 9 -93 12 -158 21 -378 42 -602 59 -47 3
-107 9 -135 12 -57 6 -1439 15 -1446 9z"/>
</g>
</svg>
