<svg width="334" height="474" viewBox="0 0 334 474" fill="none" xmlns="http://www.w3.org/2000/svg">
<mask id="mask0_523_678" style="mask-type:alpha" maskUnits="userSpaceOnUse" x="0" y="0" width="334" height="474">
<rect width="334" height="474" rx="20" fill="#F0F3FA"/>
</mask>
<g mask="url(#mask0_523_678)">
<rect width="334" height="474" rx="20" fill="white"/>
<path opacity="0.49" d="M100.529 525.51C106.14 537.95 121.378 533.822 132.203 526.729C153.33 512.92 172.85 492.285 195.586 486.249C216.209 480.882 236.576 488.392 254.487 499.353C272.397 510.313 288.941 524.693 307.393 534.214C341.612 551.683 382.29 550.684 418.959 532.567L466.991 277.415C457.492 272.662 447.95 268.139 438.215 265.12C403.816 254.85 361.64 241.642 330.357 269.073C309.044 287.71 301.25 346.328 281.339 367.6C259.752 390.573 228.525 398.654 202.528 410.005C174.461 422.271 143.152 428.236 121.05 454.905C109.368 468.952 101.427 488.09 99.0057 507.674C98.4084 513.727 98.2486 520.338 100.529 525.51Z" fill="url(#paint0_linear_523_678)"/>
<path d="M441.534 501.654L425.748 303.523C412.848 304.999 400.393 310.929 390.485 319.529C377.304 330.993 368.521 346.955 363.481 363.695C360.012 375.373 358.117 387.643 352.23 398.257C338.598 423.223 307.477 432.615 279.151 435.411C250.826 438.207 220.925 436.998 195.557 449.882C174.94 460.412 159.57 479.323 149.283 500.072C145.187 508.388 141.745 517.012 138.852 525.771L441.534 501.654V501.654Z" fill="url(#paint1_linear_523_678)"/>
<path d="M294.815 403.407C294.815 404.022 294.303 404.432 293.79 404.432C293.175 404.432 292.765 403.92 292.765 403.407C292.765 402.792 293.277 402.382 293.79 402.382C294.405 402.382 294.815 402.894 294.815 403.407Z" fill="#FF6827"/>
<path d="M167.416 474.78C167.416 475.395 166.904 475.805 166.391 475.805C165.776 475.805 165.366 475.292 165.366 474.78C165.366 474.165 165.879 473.755 166.391 473.755C167.006 473.755 167.416 474.267 167.416 474.78Z" fill="#FF6827"/>
<path d="M217.928 438.263C217.928 440.108 216.39 441.338 214.853 441.338C213.007 441.338 211.777 439.8 211.777 438.263C211.777 436.417 213.315 435.187 214.853 435.187C216.698 435.187 217.928 436.725 217.928 438.263Z" fill="#FF6827"/>
<path d="M176.921 417.759C176.921 419.605 175.384 420.835 173.846 420.835C172.001 420.835 170.77 419.297 170.77 417.759C170.77 415.914 172.308 414.684 173.846 414.684C175.691 414.684 176.921 416.222 176.921 417.759Z" fill="#FF6827"/>
<path d="M328.646 321.393C328.646 322.521 327.724 323.444 326.596 323.444C325.468 323.444 324.546 322.521 324.546 321.393C324.546 320.266 325.468 319.343 326.596 319.343C327.724 319.343 328.646 320.266 328.646 321.393Z" fill="#FF6827"/>
<path d="M154.367 442.363C154.367 442.927 153.906 443.389 153.342 443.389C152.778 443.389 152.317 442.927 152.317 442.363C152.317 441.8 152.778 441.338 153.342 441.338C153.906 441.338 154.367 441.8 154.367 442.363Z" fill="#FF6827"/>
<path d="M263.134 384.73C263.134 386.986 261.288 388.831 259.033 388.831C256.778 388.831 254.932 386.986 254.932 384.73C254.932 382.475 256.778 380.63 259.033 380.63C261.288 380.63 263.134 382.475 263.134 384.73Z" fill="#FF6827"/>
<path d="M117.359 451.808H116.417C116.006 454.252 114.844 456.507 113.092 458.261C111.341 460.014 109.087 461.179 106.644 461.593V462.535C109.088 462.947 111.344 464.109 113.098 465.861C114.851 467.613 116.016 469.867 116.429 472.311H117.371C117.782 469.866 118.944 467.61 120.696 465.856C122.448 464.102 124.703 462.937 127.147 462.523V461.581C124.703 461.17 122.447 460.008 120.693 458.257C118.939 456.506 117.773 454.252 117.359 451.808V451.808Z" fill="#FF6827"/>
<path d="M189.991 448.514H189.473C189.246 449.859 188.607 451.099 187.644 452.063C186.681 453.028 185.441 453.668 184.097 453.896V454.415C185.442 454.641 186.682 455.28 187.647 456.244C188.611 457.207 189.252 458.447 189.479 459.791H189.998C190.224 458.447 190.863 457.206 191.826 456.241C192.79 455.276 194.03 454.635 195.374 454.408V453.889C194.03 453.664 192.789 453.025 191.824 452.061C190.86 451.098 190.219 449.859 189.991 448.514V448.514Z" fill="#FF6827"/>
<path d="M244.649 407.508H243.471C242.957 410.563 241.505 413.382 239.316 415.574C237.127 417.765 234.309 419.221 231.255 419.739V420.917C234.311 421.431 237.13 422.884 239.322 425.074C241.514 427.264 242.97 430.082 243.487 433.137H244.665C245.178 430.081 246.631 427.26 248.821 425.068C251.01 422.875 253.829 421.419 256.884 420.901V419.724C253.829 419.21 251.009 417.758 248.816 415.569C246.624 413.38 245.167 410.562 244.649 407.508V407.508Z" fill="#FF6827"/>
<path d="M213.477 404.432H213.147C213.003 405.288 212.597 406.077 211.984 406.691C211.371 407.304 210.582 407.712 209.727 407.857V408.187C210.582 408.331 211.372 408.738 211.986 409.351C212.599 409.964 213.007 410.753 213.152 411.608H213.481C213.625 410.753 214.032 409.963 214.645 409.349C215.258 408.735 216.048 408.327 216.903 408.182V407.853C216.047 407.709 215.258 407.302 214.644 406.689C214.03 406.076 213.622 405.287 213.477 404.432V404.432Z" fill="#FF6827"/>
<path d="M318.045 416.734H317.715C317.571 417.59 317.164 418.379 316.551 418.993C315.938 419.606 315.15 420.014 314.294 420.159V420.489C315.15 420.633 315.939 421.04 316.553 421.653C317.167 422.266 317.574 423.055 317.719 423.91H318.049C318.193 423.055 318.6 422.265 319.213 421.651C319.826 421.037 320.615 420.629 321.471 420.484V420.155C320.615 420.011 319.825 419.604 319.212 418.991C318.598 418.378 318.19 417.59 318.045 416.734V416.734Z" fill="#FF6827"/>
<path d="M301.78 369.576H301.168C300.901 371.165 300.145 372.631 299.007 373.771C297.869 374.91 296.404 375.668 294.816 375.937V376.549C296.405 376.817 297.871 377.572 299.01 378.711C300.15 379.85 300.907 381.315 301.176 382.904H301.789C302.056 381.314 302.811 379.848 303.95 378.708C305.088 377.567 306.554 376.81 308.143 376.541V375.929C306.554 375.662 305.088 374.907 303.947 373.768C302.807 372.63 302.05 371.165 301.78 369.576V369.576Z" fill="#FF6827"/>
<path d="M300.452 323.687H299.839C299.572 325.275 298.817 326.741 297.679 327.881C296.54 329.021 295.075 329.778 293.487 330.047V330.66C295.076 330.927 296.542 331.683 297.682 332.821C298.822 333.96 299.579 335.426 299.848 337.014H300.46C300.727 335.425 301.482 333.958 302.621 332.818C303.76 331.678 305.226 330.921 306.814 330.652V330.039C305.225 329.772 303.759 329.017 302.619 327.879C301.479 326.741 300.721 325.275 300.452 323.687V323.687Z" fill="#FF6827"/>
<path d="M281.353 428.082H280.698C280.413 429.779 279.606 431.344 278.39 432.562C277.174 433.779 275.61 434.588 273.913 434.876V435.53C275.61 435.816 277.176 436.623 278.394 437.839C279.611 439.055 280.42 440.621 280.707 442.317H281.361C281.647 440.62 282.453 439.053 283.67 437.835C284.886 436.617 286.452 435.809 288.149 435.521V434.867C286.452 434.582 284.885 433.775 283.667 432.56C282.449 431.344 281.64 429.779 281.353 428.082V428.082Z" fill="#FF6827"/>
<path opacity="0.49" d="M160.782 -65.4088C152.95 -71.5612 141.608 -65.1228 134.64 -58.0088C121.031 -44.1447 110.52 -26.5273 93.5643 -16.9954C78.1566 -8.41582 59.585 -7.76391 42.113 -9.85057C24.6411 -11.9372 7.38803 -16.4626 -10.149 -17.531C-42.621 -19.3982 -75.5229 -8.32871 -100.675 12.1619L-73.0208 180.296C-64.0322 180.755 -55.0683 181.064 -46.3412 180.403C-15.6074 177.829 13.7223 161.534 32.0437 136.741C44.5395 119.882 51.9499 99.9072 62.6126 81.7998C74.1964 62.2232 89.6477 44.9558 107.87 31.3404C127.54 16.6343 151.504 4.94225 162.54 -17.0243C168.386 -28.6041 169.848 -42.3307 166.694 -54.9104C165.596 -58.76 163.995 -62.8371 160.782 -65.4088Z" fill="url(#paint2_linear_523_678)"/>
<path d="M-162.076 -30.845L-128.293 119.349C-113.615 100.998 -94.0893 85.9349 -73.3376 74.7C-36.3878 54.714 4.99086 44.6769 44.8932 31.3236C62.7307 25.396 80.5661 18.6479 96.1999 8.19943C111.834 -2.24906 125.362 -16.7844 131.598 -34.5137C138.689 -54.5331 135.855 -76.0598 134.49 -97.5519L-162.076 -30.845V-30.845Z" fill="url(#paint3_linear_523_678)"/>
<path d="M14.4219 96.7128C18.8577 96.7128 18.8577 89.7533 14.4219 89.7533C9.9097 89.7533 9.9097 96.7128 14.4219 96.7128Z" fill="#FF6827"/>
<path d="M64.1151 90.701C68.5552 90.701 68.5552 83.9834 64.1151 83.9834C59.5983 83.9834 59.5983 90.701 64.1151 90.701Z" fill="#FF6827"/>
<path opacity="0.97" d="M14 153.147C14 152.459 14.5353 152 15.1471 152C15.8354 152 16.2943 152.535 16.2943 153.147C16.2943 153.835 15.759 154.294 15.1471 154.294C14.5353 154.294 14 153.759 14 153.147Z" fill="#FF6827"/>
<path d="M56.1791 36.7539C56.1791 37.7481 55.3378 38.5894 54.3436 38.5894C53.3494 38.5894 52.5081 37.7481 52.5081 36.7539C52.5081 35.7597 53.3494 34.9184 54.3436 34.9184C55.4143 34.9184 56.1791 35.7597 56.1791 36.7539Z" fill="#FF6827"/>
<path d="M110.303 16.4027C110.303 17.3969 109.461 18.2382 108.467 18.2382C107.473 18.2382 106.632 17.3969 106.632 16.4027C106.632 15.4085 107.473 14.5672 108.467 14.5672C109.538 14.5672 110.303 15.4085 110.303 16.4027Z" fill="#FF6827"/>
<path d="M87.5982 42.0009C87.5982 41.0831 88.363 40.3184 89.2808 40.3184C90.1985 40.3184 90.9633 41.0831 90.9633 42.0009C90.9633 42.9186 90.1985 43.6834 89.2808 43.6834C88.363 43.6834 87.5982 42.9186 87.5982 42.0009Z" fill="#FF6827"/>
<path d="M29.8809 52.8992H28.8969C28.4675 55.4517 27.254 57.8071 25.4249 59.6385C23.5959 61.4699 21.242 62.6864 18.6902 63.1191V64.1031C21.2431 64.5327 23.5988 65.7467 25.4302 67.5764C27.2617 69.4061 28.4779 71.7607 28.91 74.3131H29.894C30.323 71.7596 31.5367 69.4032 33.3665 67.5711C35.1962 65.739 37.5511 64.5223 40.104 64.09V63.106C37.551 62.6772 35.1949 61.464 33.3628 59.6349C31.5308 57.8058 30.3138 55.4516 29.8809 52.8992V52.8992Z" fill="#FF6827"/>
<path d="M15.1773 22.308H14.5448C14.2687 23.9488 13.4886 25.463 12.3128 26.6403C11.137 27.8177 9.62381 28.5997 7.98331 28.8779L7.98331 29.5104C9.62446 29.7866 11.1389 30.5671 12.3162 31.7433C13.4936 32.9195 14.2754 34.4332 14.5532 36.074H15.1858C15.4616 34.4325 16.2418 32.9176 17.4181 31.7399C18.5943 30.5621 20.1082 29.7799 21.7494 29.502V28.8695C20.1081 28.5938 18.5935 27.8139 17.4157 26.638C16.238 25.4622 15.4557 23.9488 15.1773 22.308V22.308Z" fill="#FF6827"/>
<path d="M90.8907 -2.16505H90.2582C89.9821 -0.524199 89.202 0.989994 88.0262 2.16732C86.8504 3.34464 85.3372 4.12668 83.6967 4.40488V5.03741C85.3379 5.31363 86.8523 6.09403 88.0296 7.27026C89.207 8.44648 89.9889 9.96014 90.2666 11.601H90.8992C91.175 9.95948 91.9552 8.44461 93.1315 7.26684C94.3077 6.08908 95.8216 5.3069 97.4628 5.02898V4.39644C95.8216 4.12076 94.3069 3.34084 93.1292 2.16499C91.9514 0.989146 91.1691 -0.52426 90.8907 -2.16505V-2.16505Z" fill="#FF6827"/>
<path d="M129.791 7.01234H129.369C129.185 8.10625 128.665 9.11571 127.881 9.90059C127.097 10.6855 126.089 11.2068 124.995 11.3923V11.814C126.089 11.9981 127.099 12.5184 127.883 13.3026C128.668 14.0867 129.19 15.0958 129.375 16.1897H129.797C129.98 15.0954 130.501 14.0855 131.285 13.3003C132.069 12.5151 133.078 11.9936 134.172 11.8084V11.3867C133.078 11.2029 132.068 10.6829 131.283 9.89904C130.498 9.11514 129.976 8.10621 129.791 7.01234V7.01234Z" fill="#FF6827"/>
<path d="M108.73 31.9213H108.447C108.324 32.6552 107.975 33.3326 107.449 33.8592C106.923 34.3859 106.246 34.7357 105.512 34.8601V35.1431C106.246 35.2666 106.924 35.6157 107.45 36.1419C107.977 36.668 108.327 37.3451 108.451 38.0791H108.734C108.857 37.3448 109.206 36.6672 109.733 36.1404C110.259 35.6135 110.936 35.2636 111.67 35.1393V34.8564C110.936 34.733 110.258 34.3842 109.731 33.8582C109.205 33.3322 108.855 32.6552 108.73 31.9213V31.9213Z" fill="#FF6827"/>
<path d="M45.7689 107.412H45.0661C44.7594 109.236 43.8926 110.918 42.5861 112.226C41.2797 113.534 39.5984 114.403 37.7756 114.712V115.415C39.5991 115.722 41.2818 116.589 42.5899 117.896C43.8981 119.203 44.7668 120.885 45.0755 122.708H45.7783C46.0848 120.884 46.9517 119.201 48.2586 117.892C49.5656 116.584 51.2477 115.715 53.0712 115.406V114.703C51.2476 114.397 49.5647 113.53 48.2561 112.224C46.9475 110.917 46.0782 109.235 45.7689 107.412V107.412Z" fill="#FF6827"/>
<path d="M74.8648 54.4288H74.162C73.8552 56.252 72.9884 57.9344 71.682 59.2426C70.3755 60.5507 68.6942 61.4196 66.8714 61.7287V62.4315C68.6949 62.7385 70.3776 63.6056 71.6858 64.9125C72.994 66.2194 73.8627 67.9012 74.1714 69.7244H74.8742C75.1806 67.9005 76.0476 66.2173 77.3545 64.9087C78.6615 63.6001 80.3435 62.731 82.1671 62.4222V61.7194C80.3435 61.413 78.6605 60.5465 77.3519 59.24C76.0433 57.9335 75.174 56.2519 74.8648 54.4288V54.4288Z" fill="#FF6827"/>
</g>
<defs>
<linearGradient id="paint0_linear_523_678" x1="126.971" y1="17.2005" x2="425.615" y2="408.105" gradientUnits="userSpaceOnUse">
<stop offset="0.135417" stop-color="#485969"/>
<stop offset="0.8125" stop-color="#485969" stop-opacity="0"/>
</linearGradient>
<linearGradient id="paint1_linear_523_678" x1="435.023" y1="628.358" x2="262.475" y2="386.871" gradientUnits="userSpaceOnUse">
<stop offset="0.505208" stop-color="#00203F"/>
<stop offset="1" stop-color="#1A4587"/>
</linearGradient>
<linearGradient id="paint2_linear_523_678" x1="272.328" y1="251.74" x2="-8.28538" y2="13.1507" gradientUnits="userSpaceOnUse">
<stop offset="0.00526316" stop-color="#485969"/>
<stop offset="1" stop-color="#485969" stop-opacity="0"/>
</linearGradient>
<linearGradient id="paint3_linear_523_678" x1="173.485" y1="151.332" x2="-72.2091" y2="-110.712" gradientUnits="userSpaceOnUse">
<stop offset="0.375" stop-color="#1A4587"/>
<stop offset="0.911458" stop-color="#00203F"/>
</linearGradient>
</defs>
</svg>
