<svg width="1240" height="381" viewBox="0 0 1240 381" fill="none" xmlns="http://www.w3.org/2000/svg">
<mask id="mask0_439_729" style="mask-type:alpha" maskUnits="userSpaceOnUse" x="0" y="0" width="1240" height="381">
<rect width="1240" height="381" rx="20" fill="white"/>
</mask>
<g mask="url(#mask0_439_729)">
<path d="M3.05176e-05 20C3.05176e-05 8.95431 8.95434 0 20 0H1220C1231.05 0 1240 8.95431 1240 20V361C1240 372.046 1231.05 381 1220 381H20C8.95432 381 3.05176e-05 372.046 3.05176e-05 361V20Z" fill="#F0F3FA"/>
<path d="M3.05176e-05 20C3.05176e-05 8.95431 8.95434 0 20 0H1220C1231.05 0 1240 8.95431 1240 20V361C1240 372.046 1231.05 381 1220 381H20C8.95432 381 3.05176e-05 372.046 3.05176e-05 361V20Z" fill="white"/>
<path d="M374.73 -14.9323C360.739 -25.9224 340.479 -14.4214 328.031 -1.71349C303.722 23.0523 284.946 54.5229 254.657 71.5499C227.134 86.8759 193.959 88.0404 162.749 84.313C131.538 80.5855 100.718 72.5018 69.3914 70.5933C11.3858 67.2578 -47.3878 87.0315 -92.3174 123.634L-42.9184 423.978C-26.8616 424.798 -10.8492 425.349 4.74014 424.169C59.6408 419.57 112.033 390.462 144.761 346.174C167.083 316.059 180.32 280.376 199.368 248.031C220.06 213.06 247.661 182.215 280.212 157.894C315.349 131.624 358.157 110.738 377.87 71.4983C388.313 50.813 390.925 26.2928 385.291 3.82137C383.329 -3.0554 380.47 -10.3384 374.73 -14.9323Z" fill="url(#paint0_linear_439_729)"/>
<path d="M830.69 435.255C840.15 456.227 865.84 449.269 884.089 437.311C919.708 414.029 952.617 379.241 990.949 369.065C1025.72 360.017 1060.05 372.678 1090.25 391.156C1120.44 409.635 1148.34 433.877 1179.44 449.929C1237.13 479.381 1305.71 477.697 1367.53 447.153L1448.51 16.9898C1432.5 8.97734 1416.41 1.35108 1400 -3.7376C1342 -21.0519 1270.9 -43.3206 1218.16 2.9267C1182.23 34.3461 1169.09 133.171 1135.52 169.034C1099.13 207.763 1046.48 221.387 1002.65 240.525C955.333 261.204 902.549 271.259 865.287 316.222C845.592 339.903 832.205 372.168 828.123 405.184C827.116 415.39 826.846 426.535 830.69 435.255Z" fill="url(#paint1_linear_439_729)"/>
<path d="M1405.59 395.035L1378.98 61.0052C1357.23 63.4947 1336.23 73.4921 1319.53 87.9906C1297.31 107.318 1282.5 134.227 1274 162.45C1268.16 182.138 1264.96 202.825 1255.03 220.718C1232.05 262.809 1179.59 278.643 1131.83 283.356C1084.08 288.07 1033.67 286.032 990.9 307.753C956.141 325.506 930.228 357.387 912.885 392.369C905.981 406.389 900.177 420.927 895.299 435.694L1405.59 395.035Z" fill="url(#paint2_linear_439_729)"/>
<path d="M-202 27.1604L-141.652 295.457C-115.432 262.676 -80.5536 235.768 -43.4842 215.698C22.5203 179.997 96.4361 162.067 167.715 138.214C199.578 127.625 231.438 115.571 259.366 96.9066C287.293 78.2421 311.458 52.2773 322.598 20.6068C335.265 -15.1543 330.203 -53.608 327.764 -92L-202 27.1604Z" fill="url(#paint3_linear_439_729)"/>
<path d="M113.283 265.738C121.207 265.738 121.207 253.306 113.283 253.306C105.223 253.306 105.223 265.738 113.283 265.738Z" fill="#FF6827"/>
<path d="M36.0258 296C39.9916 296 39.9916 290 36.0258 290C31.9916 290 31.9916 296 36.0258 296Z" fill="#FF6827"/>
<path d="M202.051 255C209.983 255 209.983 243 202.051 243C193.983 243 193.983 255 202.051 255Z" fill="#FF6827"/>
<path d="M-92.8509 203.442C-90.1419 203.442 -90.1419 199.344 -92.8509 199.344C-95.6065 199.344 -95.6065 203.442 -92.8509 203.442Z" fill="#FF6827"/>
<path d="M56.7249 184.179C56.7249 182.95 57.6812 182.13 58.7741 182.13C60.0037 182.13 60.8234 183.086 60.8234 184.179C60.8234 185.409 59.8671 186.228 58.7741 186.228C57.6812 186.228 56.7249 185.272 56.7249 184.179Z" fill="#FF6827"/>
<path d="M124 350.049C124 348.819 124.956 348 126.049 348C127.279 348 128.099 348.956 128.099 350.049C128.099 351.278 127.142 352.098 126.049 352.098C124.956 352.098 124 351.142 124 350.049Z" fill="#FF6827"/>
<path d="M336.786 66.1437C336.786 64.9142 337.742 64.0945 338.835 64.0945C340.065 64.0945 340.884 65.0508 340.884 66.1437C340.884 67.3732 339.928 68.1929 338.835 68.1929C337.742 68.1929 336.786 67.2366 336.786 66.1437Z" fill="#FF6827"/>
<path d="M-34.8073 243.744C-34.8073 239.235 -31.3009 236.23 -27.2935 236.23C-22.7852 236.23 -19.7796 239.736 -19.7796 243.744C-19.7796 248.252 -23.2861 251.257 -27.2935 251.257C-31.3009 251.257 -34.8073 247.751 -34.8073 243.744Z" fill="#FF6827"/>
<path d="M187.875 158.632C187.875 160.408 186.372 161.911 184.596 161.911C182.82 161.911 181.318 160.408 181.318 158.632C181.318 156.856 182.82 155.353 184.596 155.353C186.509 155.353 187.875 156.856 187.875 158.632Z" fill="#FF6827"/>
<path d="M284.558 122.278C284.558 124.054 283.055 125.557 281.279 125.557C279.503 125.557 278 124.054 278 122.278C278 120.502 279.503 119 281.279 119C283.192 119 284.558 120.502 284.558 122.278Z" fill="#FF6827"/>
<path d="M244 168.005C244 166.366 245.366 165 247.006 165C248.645 165 250.011 166.366 250.011 168.005C250.011 169.644 248.645 171.011 247.006 171.011C245.366 171.011 244 169.644 244 168.005Z" fill="#FF6827"/>
<path d="M375.038 9.44837C375.038 7.21285 376.901 5.34994 379.137 5.34995C381.372 5.34995 383.235 7.21285 383.235 9.44837C383.235 11.6839 381.372 13.5469 379.137 13.5469C376.901 13.5469 375.038 11.6839 375.038 9.44837Z" fill="#FF6827"/>
<path d="M140.898 187.473H139.14C138.373 192.033 136.205 196.24 132.938 199.512C129.671 202.783 125.466 204.956 120.908 205.729V207.487C125.468 208.254 129.676 210.423 132.948 213.691C136.219 216.96 138.392 221.166 139.164 225.725H140.921C141.688 221.164 143.856 216.955 147.124 213.682C150.393 210.409 154.6 208.236 159.16 207.463V205.706C154.599 204.94 150.39 202.772 147.118 199.505C143.845 196.238 141.671 192.032 140.898 187.473Z" fill="#FF6827"/>
<path d="M59.8013 224.359H59.048C58.7192 226.313 57.7902 228.116 56.39 229.519C54.9897 230.921 53.1877 231.852 51.2341 232.183V232.936C53.1885 233.265 54.992 234.195 56.3941 235.596C57.7962 236.996 58.7273 238.799 59.0581 240.753H59.8114C60.1398 238.798 61.069 236.994 62.4698 235.591C63.8706 234.189 65.6734 233.257 67.6279 232.926V232.173C65.6733 231.845 63.8696 230.916 62.467 229.516C61.0645 228.115 60.1328 226.313 59.8013 224.359Z" fill="#FF6827"/>
<path d="M14.2787 176.544H13.2744C12.836 179.149 11.5973 181.554 9.7303 183.423C7.86329 185.292 5.46057 186.534 2.85571 186.976V187.98C5.46161 188.419 7.86626 189.658 9.73572 191.526C11.6052 193.393 12.8467 195.797 13.2878 198.402H14.2921C14.7301 195.796 15.969 193.39 17.8367 191.52C19.7044 189.65 22.1082 188.408 24.7141 187.967V186.963C22.1081 186.525 19.7031 185.286 17.833 183.419C15.9629 181.552 14.7207 179.149 14.2787 176.544Z" fill="#FF6827"/>
<path d="M114.633 132.827H113.503C113.01 135.758 111.616 138.463 109.516 140.566C107.415 142.669 104.712 144.066 101.782 144.563V145.693C104.713 146.186 107.419 147.58 109.522 149.682C111.625 151.783 113.021 154.487 113.518 157.418H114.648C115.14 154.485 116.534 151.779 118.635 149.675C120.736 147.572 123.441 146.174 126.372 145.678V144.548C123.441 144.056 120.735 142.662 118.631 140.562C116.527 138.461 115.13 135.758 114.633 132.827Z" fill="#FF6827"/>
<path d="M249.882 89.1102H248.752C248.258 92.0413 246.865 94.7461 244.765 96.8492C242.664 98.9523 239.961 100.349 237.031 100.846V101.976C239.962 102.47 242.668 103.864 244.771 105.965C246.874 108.066 248.27 110.77 248.767 113.701H249.897C250.389 110.769 251.783 108.063 253.884 105.959C255.985 103.855 258.69 102.458 261.621 101.961V100.831C258.69 100.339 255.984 98.9455 253.88 96.8451C251.776 94.7446 250.379 92.0412 249.882 89.1102Z" fill="#FF6827"/>
<path d="M319.37 105.504H318.617C318.288 107.458 317.359 109.261 315.959 110.663C314.558 112.065 312.756 112.997 310.803 113.328V114.081C312.757 114.41 314.561 115.34 315.963 116.74C317.365 118.141 318.296 119.944 318.627 121.898H319.38C319.708 119.943 320.638 118.139 322.038 116.736C323.439 115.334 325.242 114.402 327.197 114.071V113.318C325.242 112.99 323.438 112.061 322.036 110.661C320.633 109.26 319.701 107.458 319.37 105.504Z" fill="#FF6827"/>
<path d="M314.558 28.9995H313.867C313.566 30.7908 312.714 32.4437 311.431 33.7289C310.147 35.0141 308.495 35.8679 306.704 36.1716V36.8621C308.496 37.1636 310.149 38.0155 311.434 39.2995C312.72 40.5835 313.573 42.2359 313.876 44.0272H314.567C314.868 42.2352 315.72 40.5815 317.004 39.2958C318.288 38.0101 319.94 37.1562 321.732 36.8528V36.1623C319.94 35.8614 318.287 35.01 317.001 33.7264C315.716 32.4428 314.862 30.7907 314.558 28.9995Z" fill="#FF6827"/>
<path d="M281.749 150H281.243C281.023 151.311 280.399 152.521 279.46 153.461C278.52 154.402 277.311 155.027 276 155.249V155.755C277.312 155.975 278.522 156.599 279.463 157.539C280.403 158.479 281.028 159.688 281.25 161H281.755C281.976 159.688 282.599 158.477 283.539 157.536C284.479 156.595 285.689 155.97 287 155.748V155.243C285.689 155.022 284.478 154.399 283.537 153.46C282.596 152.52 281.971 151.311 281.749 150Z" fill="#FF6827"/>
<path d="M380.847 41.2949H380.094C379.765 43.2489 378.836 45.0522 377.436 46.4542C376.035 47.8563 374.233 48.7876 372.28 49.1189V49.8722C374.234 50.2011 376.038 51.1305 377.44 52.5312C378.842 53.932 379.773 55.7346 380.104 57.6887H380.857C381.185 55.7338 382.115 53.9298 383.515 52.5272C384.916 51.1246 386.719 50.1931 388.674 49.8622V49.1089C386.719 48.7806 384.915 47.8518 383.513 46.4515C382.11 45.0512 381.178 43.2489 380.847 41.2949Z" fill="#FF6827"/>
<path d="M169.279 284.851H168.024C167.476 288.108 165.927 291.114 163.594 293.45C161.26 295.787 158.257 297.339 155 297.892V299.147C158.258 299.695 161.264 301.244 163.6 303.579C165.937 305.913 167.489 308.918 168.041 312.174H169.296C169.843 308.916 171.392 305.91 173.727 303.572C176.061 301.234 179.066 299.682 182.324 299.13V297.875C179.066 297.328 176.06 295.78 173.722 293.446C171.384 291.112 169.832 288.108 169.279 284.851Z" fill="#FF6827"/>
<path d="M221.254 190.205H219.999C219.451 193.462 217.902 196.468 215.568 198.804C213.235 201.141 210.231 202.693 206.975 203.245V204.501C210.233 205.049 213.238 206.598 215.575 208.933C217.912 211.267 219.464 214.272 220.015 217.528H221.271C221.818 214.27 223.367 211.264 225.701 208.926C228.036 206.588 231.041 205.036 234.298 204.484V203.229C231.041 202.682 228.034 201.134 225.697 198.8C223.359 196.466 221.806 193.462 221.254 190.205Z" fill="#FF6827"/>
<path d="M57.9943 323H55.9725C55.0901 328.244 52.5967 333.084 48.8385 336.847C45.0803 340.61 40.2437 343.11 35.0002 343.999V346.021C40.2458 346.903 45.0862 349.398 48.8494 353.157C52.6125 356.917 55.1116 361.755 55.9995 367H58.0212C58.9028 361.753 61.3966 356.911 65.1562 353.146C68.9159 349.382 73.7546 346.882 79.0002 345.994V343.972C73.7544 343.091 68.9132 340.598 65.1488 336.839C61.3845 333.081 58.8838 328.244 57.9943 323Z" fill="#FF6827"/>
<path d="M1158.24 229.401C1158.24 230.438 1157.37 231.129 1156.51 231.129C1155.47 231.129 1154.78 230.265 1154.78 229.401C1154.78 228.364 1155.65 227.672 1156.51 227.672C1157.55 227.672 1158.24 228.536 1158.24 229.401Z" fill="#FF6827"/>
<path d="M943.457 349.728C943.457 350.765 942.593 351.457 941.728 351.457C940.691 351.457 940 350.593 940 349.728C940 348.691 940.864 348 941.728 348C942.765 348 943.457 348.864 943.457 349.728Z" fill="#FF6827"/>
<path d="M1028.61 288.164C1028.61 291.275 1026.02 293.349 1023.43 293.349C1020.32 293.349 1018.24 290.757 1018.24 288.164C1018.24 285.053 1020.84 282.979 1023.43 282.979C1026.54 282.979 1028.61 285.572 1028.61 288.164Z" fill="#FF6827"/>
<path d="M959.481 253.597C959.481 256.708 956.889 258.782 954.296 258.782C951.185 258.782 949.111 256.19 949.111 253.597C949.111 250.486 951.704 248.412 954.296 248.412C957.407 248.412 959.481 251.005 959.481 253.597Z" fill="#FF6827"/>
<path d="M1276.28 85.2572C1276.28 87.1584 1274.73 88.7139 1272.83 88.7139C1270.93 88.7139 1269.37 87.1584 1269.37 85.2572C1269.37 83.356 1270.93 81.8005 1272.83 81.8005C1274.73 81.8005 1276.28 83.356 1276.28 85.2572Z" fill="#FF6827"/>
<path d="M1270.58 184.464C1270.58 186.365 1269.03 187.921 1267.12 187.921C1265.22 187.921 1263.67 186.365 1263.67 184.464C1263.67 182.563 1265.22 181.007 1267.12 181.007C1269.03 181.007 1270.58 182.563 1270.58 184.464Z" fill="#FF6827"/>
<path d="M1215.28 91.1335C1215.28 93.0347 1213.72 94.5902 1211.82 94.5902C1209.92 94.5902 1208.36 93.0347 1208.36 91.1335C1208.36 89.2324 1209.92 87.6768 1211.82 87.6768C1213.72 87.6768 1215.28 89.2324 1215.28 91.1335Z" fill="#FF6827"/>
<path d="M921.457 295.077C921.457 296.028 920.679 296.806 919.728 296.806C918.778 296.806 918 296.028 918 295.077C918 294.127 918.778 293.349 919.728 293.349C920.679 293.349 921.457 294.127 921.457 295.077Z" fill="#FF6827"/>
<path d="M1246.38 227.672C1246.38 231.475 1243.27 234.586 1239.47 234.586C1235.67 234.586 1232.56 231.475 1232.56 227.672C1232.56 223.87 1235.67 220.759 1239.47 220.759C1243.27 220.759 1246.38 223.87 1246.38 227.672Z" fill="#FF6827"/>
<path d="M1104.83 197.913C1104.83 201.716 1101.72 204.827 1097.91 204.827C1094.11 204.827 1091 201.716 1091 197.913C1091 194.111 1094.11 191 1097.91 191C1101.72 191 1104.83 194.111 1104.83 197.913Z" fill="#FF6827"/>
<path d="M1337.99 84.2202C1340.85 84.2202 1343.17 81.8988 1343.17 79.0352C1343.17 76.1715 1340.85 73.8502 1337.99 73.8502C1335.12 73.8502 1332.8 76.1715 1332.8 79.0352C1332.8 81.8988 1335.12 84.2202 1337.99 84.2202Z" fill="#FF6827"/>
<path d="M859.064 311H857.476C856.783 315.12 854.824 318.922 851.871 321.879C848.919 324.835 845.119 326.799 841 327.497V329.085C845.121 329.779 848.924 331.739 851.88 334.692C854.836 337.646 856.8 341.446 857.497 345.567H859.085C859.778 341.445 861.737 337.641 864.691 334.684C867.644 331.726 871.446 329.762 875.567 329.064V327.476C871.446 326.784 867.642 324.825 864.685 321.873C861.728 318.92 859.763 315.12 859.064 311Z" fill="#FF6827"/>
<path d="M981.515 305.447H980.641C980.26 307.714 979.182 309.805 977.558 311.431C975.935 313.057 973.845 314.137 971.579 314.521V315.395C973.846 315.776 975.937 316.854 977.563 318.478C979.189 320.103 980.269 322.193 980.653 324.459H981.526C981.907 322.192 982.985 320.1 984.609 318.473C986.234 316.847 988.324 315.767 990.591 315.383V314.509C988.324 314.129 986.232 313.051 984.606 311.428C982.979 309.804 981.899 307.714 981.515 305.447Z" fill="#FF6827"/>
<path d="M1073.66 236.314H1071.68C1070.81 241.464 1068.36 246.217 1064.67 249.912C1060.98 253.608 1056.23 256.062 1051.08 256.935V258.921C1056.23 259.788 1060.99 262.237 1064.68 265.929C1068.38 269.621 1070.83 274.372 1071.7 279.522H1073.69C1074.56 274.37 1077 269.615 1080.7 265.918C1084.39 262.222 1089.14 259.767 1094.29 258.894V256.909C1089.14 256.044 1084.39 253.596 1080.69 249.905C1076.99 246.214 1074.54 241.464 1073.66 236.314Z" fill="#FF6827"/>
<path d="M1021.11 231.129H1020.55C1020.31 232.571 1019.63 233.902 1018.59 234.936C1017.56 235.971 1016.23 236.658 1014.79 236.903V237.459C1016.23 237.702 1017.56 238.387 1018.6 239.421C1019.63 240.455 1020.32 241.785 1020.56 243.227H1021.12C1021.36 241.785 1022.05 240.453 1023.08 239.418C1024.11 238.383 1025.44 237.696 1026.89 237.451V236.896C1025.44 236.653 1024.11 235.968 1023.08 234.934C1022.04 233.901 1021.36 232.571 1021.11 231.129Z" fill="#FF6827"/>
<path d="M899.929 365H899.056C898.675 367.265 897.598 369.355 895.976 370.98C894.353 372.605 892.264 373.684 890 374.068V374.941C892.265 375.322 894.355 376.399 895.98 378.023C897.605 379.646 898.684 381.735 899.068 384H899.941C900.322 381.734 901.398 379.644 903.022 378.018C904.645 376.392 906.735 375.313 909 374.929V374.056C906.735 373.676 904.644 372.599 903.019 370.976C901.393 369.353 900.313 367.265 899.929 365Z" fill="#FF6827"/>
<path d="M1197.4 251.869H1196.85C1196.6 253.311 1195.92 254.642 1194.88 255.677C1193.85 256.711 1192.52 257.399 1191.08 257.643V258.199C1192.52 258.442 1193.85 259.128 1194.89 260.161C1195.92 261.195 1196.61 262.525 1196.85 263.967H1197.41C1197.65 262.525 1198.34 261.193 1199.37 260.158C1200.4 259.123 1201.74 258.436 1203.18 258.192V257.636C1201.74 257.393 1200.4 256.708 1199.37 255.674C1198.33 254.641 1197.65 253.311 1197.4 251.869Z" fill="#FF6827"/>
<path d="M1237.87 22H1237.16C1236.85 23.8541 1235.96 25.5651 1234.64 26.8954C1233.31 28.2257 1231.6 29.1094 1229.74 29.4237V30.1385C1231.6 30.4506 1233.31 31.3324 1234.64 32.6615C1235.97 33.9906 1236.85 35.7009 1237.17 37.5551H1237.88C1238.19 35.7002 1239.08 33.9884 1240.4 32.6576C1241.73 31.3268 1243.44 30.443 1245.3 30.1289V29.4142C1243.44 29.1027 1241.73 28.2214 1240.4 26.8928C1239.07 25.5641 1238.19 23.854 1237.87 22Z" fill="#FF6827"/>
<path d="M1169.98 172.365H1168.95C1168.5 175.044 1167.23 177.515 1165.31 179.437C1163.39 181.358 1160.92 182.635 1158.24 183.089V184.121C1160.92 184.572 1163.39 185.846 1165.31 187.765C1167.23 189.685 1168.51 192.156 1168.96 194.834H1170C1170.45 192.155 1171.72 189.682 1173.64 187.76C1175.56 185.837 1178.03 184.561 1180.71 184.107V183.075C1178.03 182.625 1175.56 181.352 1173.64 179.433C1171.71 177.514 1170.44 175.043 1169.98 172.365Z" fill="#FF6827"/>
<path d="M1167.74 95H1166.71C1166.26 97.6781 1164.99 100.15 1163.07 102.071C1161.15 103.993 1158.68 105.269 1156 105.723V106.756C1158.68 107.206 1161.15 108.48 1163.07 110.4C1164.99 112.32 1166.27 114.79 1166.72 117.468H1167.76C1168.21 114.789 1169.48 112.317 1171.4 110.394C1173.32 108.472 1175.79 107.195 1178.47 106.742V105.709C1175.79 105.259 1173.32 103.986 1171.4 102.067C1169.47 100.148 1168.2 97.678 1167.74 95Z" fill="#FF6827"/>
<path d="M1325.92 170.637H1324.1C1323.3 175.375 1321.05 179.748 1317.65 183.148C1314.26 186.547 1309.89 188.805 1305.15 189.609V191.435C1309.89 192.233 1314.26 194.487 1317.66 197.883C1321.06 201.28 1323.32 205.651 1324.12 210.389H1325.95C1326.74 205.649 1329 201.274 1332.39 197.873C1335.79 194.472 1340.16 192.214 1344.9 191.411V189.584C1340.16 188.788 1335.79 186.536 1332.39 183.141C1328.99 179.745 1326.73 175.375 1325.92 170.637Z" fill="#FF6827"/>
<path d="M1242.24 129.787H1241.61C1241.33 131.435 1240.54 132.956 1239.36 134.138C1238.18 135.321 1236.66 136.106 1235.02 136.386V137.021C1236.66 137.299 1238.18 138.082 1239.37 139.264C1240.55 140.445 1241.33 141.966 1241.61 143.614H1242.25C1242.53 141.965 1243.31 140.443 1244.49 139.26C1245.67 138.077 1247.19 137.292 1248.84 137.013V136.377C1247.19 136.1 1245.67 135.317 1244.49 134.136C1243.31 132.955 1242.52 131.435 1242.24 129.787Z" fill="#FF6827"/>
<path d="M1135.54 271H1134.44C1133.96 273.861 1132.6 276.501 1130.55 278.553C1128.5 280.606 1125.86 281.969 1123 282.454V283.557C1125.86 284.038 1128.5 285.399 1130.55 287.45C1132.61 289.5 1133.97 292.139 1134.45 295H1135.56C1136.04 292.138 1137.4 289.497 1139.45 287.444C1141.5 285.39 1144.14 284.027 1147 283.542V282.439C1144.14 281.959 1141.5 280.599 1139.44 278.549C1137.39 276.499 1136.03 273.861 1135.54 271Z" fill="#FF6827"/>
<path d="M1311.63 35.8267H1310.75C1310.37 38.0928 1309.3 40.184 1307.67 41.81C1306.05 43.4359 1303.96 44.516 1301.69 44.9002V45.7737C1303.96 46.1552 1306.05 47.233 1307.68 48.8574C1309.3 50.4818 1310.38 52.5723 1310.77 54.8384H1311.64C1312.02 52.5714 1313.1 50.4793 1314.72 48.8527C1316.35 47.2261 1318.44 46.1459 1320.7 45.7621V44.8885C1318.44 44.5078 1316.35 43.4307 1314.72 41.8067C1313.09 40.1828 1312.01 38.0927 1311.63 35.8267Z" fill="#FF6827"/>
</g>
<defs>
<linearGradient id="paint0_linear_439_729" x1="1774.44" y1="792.879" x2="1356.56" y2="-327.202" gradientUnits="userSpaceOnUse">
<stop offset="0.00526316" stop-color="#485969"/>
<stop offset="1" stop-color="#485969" stop-opacity="0"/>
</linearGradient>
<linearGradient id="paint1_linear_439_729" x1="1774.44" y1="786.764" x2="1361.62" y2="-327.452" gradientUnits="userSpaceOnUse">
<stop offset="0.135417" stop-color="#485969"/>
<stop offset="0.8125" stop-color="#485969" stop-opacity="0"/>
</linearGradient>
<linearGradient id="paint2_linear_439_729" x1="1358.52" y1="827.416" x2="1078.89" y2="-65.869" gradientUnits="userSpaceOnUse">
<stop offset="0.505208" stop-color="#00203F"/>
<stop offset="1" stop-color="#1A4587"/>
</linearGradient>
<linearGradient id="paint3_linear_439_729" x1="1358.52" y1="827.416" x2="836.222" y2="-490.009" gradientUnits="userSpaceOnUse">
<stop offset="0.375" stop-color="#1A4587"/>
<stop offset="0.911458" stop-color="#00203F"/>
</linearGradient>
</defs>
</svg>
